<mxfile host="Electron" modified="2024-05-15T12:29:26.597Z" agent="Mozilla/5.0 (Windows NT 10.0; Win64; x64) AppleWebKit/537.36 (KHTML, like Gecko) draw.io/21.6.1 Chrome/112.0.5615.204 Electron/24.6.1 Safari/537.36" etag="HcVasU5ocHnVCA1sc8_u" version="21.6.1" type="device">
  <diagram name="PÃ¡gina-1" id="QGSJA5NPgSA9BYXgcbXC">
    <mxGraphModel dx="1098" dy="640" grid="1" gridSize="10" guides="1" tooltips="1" connect="1" arrows="1" fold="1" page="1" pageScale="1" pageWidth="1169" pageHeight="827" math="0" shadow="0">
      <root>
        <mxCell id="0" />
        <mxCell id="1" parent="0" />
        <mxCell id="Lu5ecfiZg4mvMK0-IetX-1" value="Cliente" style="shape=umlActor;verticalLabelPosition=bottom;verticalAlign=top;html=1;outlineConnect=0;" vertex="1" parent="1">
          <mxGeometry x="160" y="240" width="30" height="60" as="geometry" />
        </mxCell>
        <mxCell id="Lu5ecfiZg4mvMK0-IetX-2" value="" style="endArrow=none;dashed=1;html=1;rounded=0;" edge="1" parent="1" source="Lu5ecfiZg4mvMK0-IetX-6" target="Lu5ecfiZg4mvMK0-IetX-1">
          <mxGeometry width="50" height="50" relative="1" as="geometry">
            <mxPoint x="175" y="700" as="sourcePoint" />
            <mxPoint x="170" y="330" as="targetPoint" />
          </mxGeometry>
        </mxCell>
        <mxCell id="Lu5ecfiZg4mvMK0-IetX-3" value=":Sistema Registro" style="html=1;whiteSpace=wrap;" vertex="1" parent="1">
          <mxGeometry x="600" y="250" width="110" height="50" as="geometry" />
        </mxCell>
        <mxCell id="Lu5ecfiZg4mvMK0-IetX-4" value="" style="endArrow=none;dashed=1;html=1;rounded=0;" edge="1" parent="1" source="Lu5ecfiZg4mvMK0-IetX-8">
          <mxGeometry width="50" height="50" relative="1" as="geometry">
            <mxPoint x="654.4100000000001" y="700" as="sourcePoint" />
            <mxPoint x="654.4100000000001" y="300" as="targetPoint" />
          </mxGeometry>
        </mxCell>
        <mxCell id="Lu5ecfiZg4mvMK0-IetX-5" value="" style="endArrow=none;dashed=1;html=1;rounded=0;" edge="1" parent="1" target="Lu5ecfiZg4mvMK0-IetX-6">
          <mxGeometry width="50" height="50" relative="1" as="geometry">
            <mxPoint x="175" y="730" as="sourcePoint" />
            <mxPoint x="175" y="300" as="targetPoint" />
          </mxGeometry>
        </mxCell>
        <mxCell id="Lu5ecfiZg4mvMK0-IetX-6" value="" style="rounded=0;whiteSpace=wrap;html=1;" vertex="1" parent="1">
          <mxGeometry x="167.5" y="340" width="15" height="120" as="geometry" />
        </mxCell>
        <mxCell id="Lu5ecfiZg4mvMK0-IetX-7" value="" style="endArrow=none;dashed=1;html=1;rounded=0;" edge="1" parent="1" target="Lu5ecfiZg4mvMK0-IetX-8">
          <mxGeometry width="50" height="50" relative="1" as="geometry">
            <mxPoint x="655" y="730" as="sourcePoint" />
            <mxPoint x="654.4100000000001" y="300" as="targetPoint" />
          </mxGeometry>
        </mxCell>
        <mxCell id="Lu5ecfiZg4mvMK0-IetX-8" value="" style="rounded=0;whiteSpace=wrap;html=1;" vertex="1" parent="1">
          <mxGeometry x="647.5" y="330" width="15" height="130" as="geometry" />
        </mxCell>
        <mxCell id="Lu5ecfiZg4mvMK0-IetX-9" value="altaMascota(datos: Mascota)" style="html=1;verticalAlign=bottom;endArrow=block;edgeStyle=elbowEdgeStyle;elbow=vertical;curved=0;rounded=0;" edge="1" parent="1" source="Lu5ecfiZg4mvMK0-IetX-6">
          <mxGeometry width="80" relative="1" as="geometry">
            <mxPoint x="360" y="400" as="sourcePoint" />
            <mxPoint x="650" y="400" as="targetPoint" />
          </mxGeometry>
        </mxCell>
        <mxCell id="Lu5ecfiZg4mvMK0-IetX-10" value="fichaFicha" style="html=1;verticalAlign=bottom;endArrow=open;dashed=1;endSize=8;edgeStyle=elbowEdgeStyle;elbow=vertical;curved=0;rounded=0;exitX=0.014;exitY=0.687;exitDx=0;exitDy=0;exitPerimeter=0;" edge="1" parent="1" source="Lu5ecfiZg4mvMK0-IetX-8" target="Lu5ecfiZg4mvMK0-IetX-6">
          <mxGeometry relative="1" as="geometry">
            <mxPoint x="630" y="420" as="sourcePoint" />
            <mxPoint x="370" y="470.31" as="targetPoint" />
            <Array as="points">
              <mxPoint x="630" y="429" />
            </Array>
          </mxGeometry>
        </mxCell>
        <mxCell id="Lu5ecfiZg4mvMK0-IetX-21" value="" style="rounded=0;whiteSpace=wrap;html=1;" vertex="1" parent="1">
          <mxGeometry x="167.5" y="560" width="15" height="90" as="geometry" />
        </mxCell>
        <mxCell id="Lu5ecfiZg4mvMK0-IetX-22" value="" style="rounded=0;whiteSpace=wrap;html=1;" vertex="1" parent="1">
          <mxGeometry x="647.5" y="560" width="15" height="100" as="geometry" />
        </mxCell>
        <mxCell id="Lu5ecfiZg4mvMK0-IetX-23" value="implantarChip()" style="html=1;verticalAlign=bottom;endArrow=block;edgeStyle=elbowEdgeStyle;elbow=vertical;curved=0;rounded=0;" edge="1" source="Lu5ecfiZg4mvMK0-IetX-21" parent="1">
          <mxGeometry width="80" relative="1" as="geometry">
            <mxPoint x="360" y="590" as="sourcePoint" />
            <mxPoint x="650" y="590" as="targetPoint" />
          </mxGeometry>
        </mxCell>
        <mxCell id="Lu5ecfiZg4mvMK0-IetX-24" value="chipImplantado" style="html=1;verticalAlign=bottom;endArrow=open;dashed=1;endSize=8;edgeStyle=elbowEdgeStyle;elbow=vertical;curved=0;rounded=0;exitX=0.014;exitY=0.687;exitDx=0;exitDy=0;exitPerimeter=0;" edge="1" source="Lu5ecfiZg4mvMK0-IetX-22" target="Lu5ecfiZg4mvMK0-IetX-21" parent="1">
          <mxGeometry relative="1" as="geometry">
            <mxPoint x="630" y="610" as="sourcePoint" />
            <mxPoint x="370" y="660.31" as="targetPoint" />
            <Array as="points">
              <mxPoint x="630" y="619" />
            </Array>
          </mxGeometry>
        </mxCell>
        <mxCell id="Lu5ecfiZg4mvMK0-IetX-25" value="Opt" style="shape=umlFrame;whiteSpace=wrap;html=1;pointerEvents=0;" vertex="1" parent="1">
          <mxGeometry x="120" y="480" width="600" height="200" as="geometry" />
        </mxCell>
        <mxCell id="Lu5ecfiZg4mvMK0-IetX-26" value="!chip" style="text;html=1;align=center;verticalAlign=middle;resizable=0;points=[];autosize=1;strokeColor=none;fillColor=none;" vertex="1" parent="1">
          <mxGeometry x="120" y="510" width="50" height="30" as="geometry" />
        </mxCell>
      </root>
    </mxGraphModel>
  </diagram>
</mxfile>
